
<svg width="40" height="40" viewBox="0 0 40 40" fill="none" xmlns="http://www.w3.org/2000/svg">
  <path d="M20 3C12.52 3 6.73 7.97 5.35 14.63C5.13 15.55 5 16.51 5 17.5C5 25.49 11.51 32 19.5 32H20V37C20 37.55 20.45 38 21 38C21.55 38 22 37.55 22 37V3.17C21.33 3.06 20.68 3 20 3Z" fill="#4CAF50"/>
  <path d="M33.55 12.23C31.96 10.64 29.86 9.61 27.55 9.32V30.13C31.44 28.59 34 24.75 34 20.23C34 16.92 32.47 14 30 12.23H33.55Z" fill="#8BC34A"/>
  <path fillRule="evenodd" clipRule="evenodd" d="M20 5C13.54 5 8.25 9.09 7.07 14.7C6.38 18.07 7.42 21.61 9.7 24.22C11.95 26.76 15.24 28.29 19 28.29H20C20.55 28.29 21 27.84 21 27.29C21 26.74 20.55 26.29 20 26.29H19C15.93 26.29 13.25 25.04 11.42 23.01C9.62 21.03 8.77 18.17 9.32 15.45C10.25 10.91 14.54 7.59 20 7.07V27C20 27.55 20.45 28 21 28C21.55 28 22 27.55 22 27V6C22 5.45 21.55 5 21 5H20Z" fill="#2E7D32"/>
</svg>
